#N canvas 164 256 417 204 10;
#X obj 18 53 netreceive -u -b;
#X obj 18 76 oscparse;
#X obj 18 1 loadbang;
#X obj 18 99 list trim;
#X msg 18 25 listen 3000;
#X obj 9 146 s ori;
#X obj 52 147 s acc;
#X obj 97 146 s gyr;
#X obj 148 146 s emg;
#X obj 192 146 s euler;
#X obj 253 147 s accmag;
#X obj 316 145 s gyrmag;
#X obj 26 123 route ori acc gyr emg euler accmag gyrmag;
#X connect 0 0 1 0;
#X connect 1 0 3 0;
#X connect 2 0 4 0;
#X connect 3 0 12 0;
#X connect 4 0 0 0;
#X connect 12 0 5 0;
#X connect 12 1 6 0;
#X connect 12 2 7 0;
#X connect 12 3 8 0;
#X connect 12 4 9 0;
#X connect 12 5 10 0;
#X connect 12 6 11 0;
