#N canvas 913 40 725 443 10;
#X obj 18 53 netreceive -u -b;
#X obj 18 76 oscparse;
#X obj 18 1 loadbang;
#X obj 18 99 list trim;
#X msg 18 25 listen 3000;
#X floatatom 419 253 5 0 0 0 - - -, f 5;
#X floatatom 353 253 5 0 0 0 - - -, f 5;
#X obj 199 230 unpack f f f;
#X floatatom 198 255 5 0 0 0 - - -, f 5;
#X floatatom 244 255 5 0 0 0 - - -, f 5;
#X floatatom 285 256 5 0 0 0 - - -, f 5;
#X obj 198 276 vsl 15 128 -1 1 0 0 empty empty empty 0 -9 0 10 -262144
-1 -1 5866 1;
#X obj 238 276 vsl 15 128 -1 1 0 0 empty empty empty 0 -9 0 10 -262144
-1 -1 6020 1;
#X obj 275 277 vsl 15 128 -1 1 0 0 empty empty empty 0 -9 0 10 -262144
-1 -1 5696 1;
#X obj 25 287 unpack f f f;
#X floatatom 23 312 5 0 0 0 - - -, f 5;
#X floatatom 69 312 5 0 0 0 - - -, f 5;
#X floatatom 111 311 5 0 0 0 - - -, f 5;
#X obj 353 275 vsl 15 128 0 10 0 0 empty empty empty 0 -9 0 10 -262144
-1 -1 1272 1;
#X obj 419 273 vsl 15 128 0 360 0 0 empty empty empty 0 -9 0 10 -262144
-1 -1 598 1;
#X obj 525 282 vsl 15 128 -1 1 0 0 empty empty empty 0 -9 0 10 -262144
-1 -1 6850 1;
#X obj 547 282 vsl 15 128 -1 1 0 0 empty empty empty 0 -9 0 10 -262144
-1 -1 6500 1;
#X obj 573 282 vsl 15 128 -1 1 0 0 empty empty empty 0 -9 0 10 -262144
-1 -1 6600 1;
#X obj 532 252 unpack f f f f f f f f;
#X obj 596 282 vsl 15 128 -1 1 0 0 empty empty empty 0 -9 0 10 -262144
-1 -1 6850 1;
#X obj 617 282 vsl 15 128 -1 1 0 0 empty empty empty 0 -9 0 10 -262144
-1 -1 6050 1;
#X obj 638 282 vsl 15 128 -1 1 0 0 empty empty empty 0 -9 0 10 -262144
-1 -1 5700 1;
#X obj 664 282 vsl 15 128 -1 1 0 0 empty empty empty 0 -9 0 10 -262144
-1 -1 6200 1;
#X obj 687 282 vsl 15 128 -1 1 0 0 empty empty empty 0 -9 0 10 -262144
-1 -1 6500 1;
#X obj 9 146 s ori;
#X obj 52 147 s acc;
#X obj 97 146 s gyr;
#X obj 148 146 s emg;
#X obj 192 146 s euler;
#X obj 253 147 s accmag;
#X obj 316 145 s gyrmag;
#X obj 532 231 r emg;
#X obj 353 231 r accmag;
#X obj 419 231 r gyrmag;
#X obj 199 208 r euler;
#X obj 24 367 unpack f f f;
#X floatatom 23 392 5 0 0 0 - - -, f 5;
#X floatatom 69 392 5 0 0 0 - - -, f 5;
#X floatatom 111 391 5 0 0 0 - - -, f 5;
#X floatatom 22 247 5 0 0 0 - - -, f 5;
#X floatatom 68 247 5 0 0 0 - - -, f 5;
#X floatatom 109 247 5 0 0 0 - - -, f 5;
#X obj 23 222 unpack f f f f;
#X floatatom 149 247 5 0 0 0 - - -, f 5;
#X obj 23 200 r ori;
#X obj 24 265 r acc;
#X obj 23 344 r gyr;
#X obj 26 123 route ori acc gyr emg euler accmag gyrmag;
#X connect 0 0 1 0;
#X connect 1 0 3 0;
#X connect 2 0 4 0;
#X connect 3 0 52 0;
#X connect 4 0 0 0;
#X connect 5 0 19 0;
#X connect 6 0 18 0;
#X connect 7 0 8 0;
#X connect 7 0 11 0;
#X connect 7 1 9 0;
#X connect 7 1 12 0;
#X connect 7 2 10 0;
#X connect 7 2 13 0;
#X connect 14 0 15 0;
#X connect 14 1 16 0;
#X connect 14 2 17 0;
#X connect 23 0 20 0;
#X connect 23 1 21 0;
#X connect 23 2 22 0;
#X connect 23 3 24 0;
#X connect 23 4 25 0;
#X connect 23 5 26 0;
#X connect 23 6 27 0;
#X connect 23 7 28 0;
#X connect 36 0 23 0;
#X connect 37 0 6 0;
#X connect 38 0 5 0;
#X connect 39 0 7 0;
#X connect 40 0 41 0;
#X connect 40 1 42 0;
#X connect 40 2 43 0;
#X connect 47 0 44 0;
#X connect 47 1 45 0;
#X connect 47 2 46 0;
#X connect 47 3 48 0;
#X connect 49 0 47 0;
#X connect 50 0 14 0;
#X connect 51 0 40 0;
#X connect 52 0 29 0;
#X connect 52 1 30 0;
#X connect 52 2 31 0;
#X connect 52 3 32 0;
#X connect 52 4 33 0;
#X connect 52 5 34 0;
#X connect 52 6 35 0;
